<?xml version="1.0" encoding="utf-8"?>
<!-- Generator: Adobe Illustrator 16.0.0, SVG Export Plug-In . SVG Version: 6.00 Build 0)  -->
<!DOCTYPE svg PUBLIC "-//W3C//DTD SVG 1.1//EN" "http://www.w3.org/Graphics/SVG/1.1/DTD/svg11.dtd">
<svg version="1.1" id="Layer_1" xmlns="http://www.w3.org/2000/svg" xmlns:xlink="http://www.w3.org/1999/xlink" x="0px" y="0px"
	 width="960px" height="560px" viewBox="0 0 960 560" enable-background="new 0 0 960 560" xml:space="preserve">
<g enable-background="new    ">
	<path fill="none" stroke="#FFFFFF" d="M248.473,139.116c3.816-0.576,8.353-1.009,13.321-1.009c9.001,0,15.41,2.089,19.658,6.049
		c4.32,3.96,6.841,9.577,6.841,17.426c0,7.921-2.448,14.401-6.985,18.865c-4.536,4.536-12.025,6.984-21.458,6.984
		c-4.464,0-8.209-0.216-11.377-0.575V139.116z M254.737,182.031c1.584,0.288,3.889,0.36,6.337,0.36
		c13.393,0,20.666-7.488,20.666-20.594c0.072-11.449-6.409-18.722-19.658-18.722c-3.24,0-5.688,0.288-7.345,0.648V182.031z"/>
	<path fill="none" stroke="#FFFFFF" d="M321.554,164.246h-18.866v17.497h21.026V187h-27.29v-48.532h26.21v5.257h-19.946v15.337
		h18.866V164.246z"/>
	<path fill="none" stroke="#FFFFFF" d="M330.982,179.367c2.808,1.729,6.913,3.168,11.233,3.168c6.409,0,10.153-3.384,10.153-8.28
		c0-4.536-2.592-7.129-9.145-9.648c-7.921-2.809-12.817-6.913-12.817-13.754c0-7.561,6.265-13.177,15.697-13.177
		c4.969,0,8.569,1.152,10.729,2.376l-1.728,5.112c-1.584-0.863-4.824-2.304-9.217-2.304c-6.625,0-9.145,3.96-9.145,7.272
		c0,4.536,2.952,6.769,9.648,9.36c8.209,3.169,12.385,7.129,12.385,14.258c0,7.488-5.544,13.969-16.994,13.969
		c-4.68,0-9.792-1.368-12.385-3.096L330.982,179.367z"/>
	<path fill="none" stroke="#FFFFFF" d="M373.607,138.468V187h-6.264v-48.532H373.607z"/>
	<path fill="none" stroke="#FFFFFF" d="M421.489,184.84c-2.808,1.008-8.353,2.664-14.905,2.664c-7.345,0-13.393-1.872-18.146-6.408
		c-4.176-4.032-6.769-10.513-6.769-18.074c0.072-14.473,10.009-25.058,26.282-25.058c5.617,0,10.009,1.224,12.097,2.232
		l-1.512,5.112c-2.592-1.152-5.833-2.088-10.729-2.088c-11.809,0-19.514,7.344-19.514,19.514c0,12.313,7.417,19.585,18.722,19.585
		c4.104,0,6.913-0.576,8.353-1.296V166.55h-9.865v-5.04h15.985V184.84z"/>
	<path fill="none" stroke="#FFFFFF" d="M431.062,187v-48.532h6.84l15.553,24.554c3.601,5.688,6.409,10.802,8.713,15.77l0.144-0.071
		c-0.576-6.481-0.72-12.386-0.72-19.946v-20.306h5.905V187h-6.336l-15.41-24.626c-3.384-5.4-6.625-10.945-9.073-16.201l-0.216,0.071
		c0.36,6.121,0.504,11.953,0.504,20.018V187H431.062z"/>
	<path fill="none" stroke="#FFFFFF" d="M503.567,164.246h-18.866v17.497h21.026V187h-27.29v-48.532h26.21v5.257h-19.946v15.337
		h18.866V164.246z"/>
	<path fill="none" stroke="#FFFFFF" d="M513.86,139.116c3.168-0.648,7.704-1.009,12.024-1.009c6.697,0,11.018,1.225,14.041,3.961
		c2.449,2.16,3.816,5.473,3.816,9.217c0,6.408-4.031,10.656-9.145,12.385v0.216c3.744,1.296,5.977,4.753,7.129,9.793
		c1.584,6.769,2.736,11.449,3.744,13.321h-6.48c-0.792-1.368-1.872-5.545-3.24-11.593c-1.439-6.697-4.032-9.217-9.721-9.433h-5.904
		V187h-6.265V139.116z M520.125,161.222h6.408c6.697,0,10.945-3.672,10.945-9.217c0-6.265-4.537-9.001-11.161-9.072
		c-3.024,0-5.185,0.288-6.192,0.575V161.222z"/>
</g>
<g enable-background="new    ">
	<path fill="none" stroke="#FFFFFF" d="M254.737,224.868V273.4h-6.264v-48.532H254.737z"/>
	<path fill="none" stroke="#FFFFFF" d="M265.681,224.868h6.264v43.275h20.738v5.257h-27.002V224.868z"/>
	<path fill="none" stroke="#FFFFFF" d="M299.664,224.868h6.264v43.275h20.738v5.257h-27.002V224.868z"/>
	<path fill="none" stroke="#FFFFFF" d="M337.319,224.868v28.73c0,10.873,4.825,15.481,11.305,15.481
		c7.201,0,11.809-4.753,11.809-15.481v-28.73h6.336v28.299c0,14.905-7.849,21.025-18.361,21.025
		c-9.937,0-17.426-5.688-17.426-20.737v-28.587H337.319z"/>
</g>
<g enable-background="new    ">
	<path fill="none" stroke="#FFFFFF" d="M379.365,265.768c2.808,1.729,6.913,3.168,11.233,3.168c6.409,0,10.153-3.384,10.153-8.28
		c0-4.536-2.592-7.129-9.145-9.648c-7.921-2.809-12.817-6.913-12.817-13.754c0-7.561,6.265-13.177,15.697-13.177
		c4.969,0,8.569,1.152,10.729,2.376l-1.728,5.112c-1.584-0.863-4.824-2.304-9.217-2.304c-6.625,0-9.145,3.96-9.145,7.272
		c0,4.536,2.952,6.769,9.648,9.36c8.209,3.169,12.385,7.129,12.385,14.258c0,7.488-5.544,13.969-16.994,13.969
		c-4.68,0-9.792-1.368-12.385-3.096L379.365,265.768z"/>
</g>
<g enable-background="new    ">
	<path fill="none" stroke="#FFFFFF" d="M426.237,230.196h-14.761v-5.328h35.931v5.328h-14.833V273.4h-6.336V230.196z"/>
</g>
<g enable-background="new    ">
	<path fill="none" stroke="#FFFFFF" d="M453.453,225.517c3.168-0.648,7.705-1.009,12.025-1.009c6.697,0,11.017,1.225,14.041,3.961
		c2.448,2.16,3.816,5.473,3.816,9.217c0,6.408-4.032,10.656-9.145,12.385v0.216c3.744,1.296,5.977,4.753,7.128,9.793
		c1.584,6.769,2.736,11.449,3.744,13.321h-6.48c-0.792-1.368-1.872-5.545-3.24-11.593c-1.44-6.697-4.032-9.217-9.721-9.433h-5.905
		V273.4h-6.264V225.517z M459.717,247.622h6.409c6.697,0,10.945-3.672,10.945-9.217c0-6.265-4.536-9.001-11.161-9.072
		c-3.024,0-5.185,0.288-6.193,0.575V247.622z"/>
</g>
<g enable-background="new    ">
	<path fill="none" stroke="#FFFFFF" d="M502.125,258.135l-5.04,15.266h-6.48l16.489-48.532h7.561l16.562,48.532h-6.696
		l-5.185-15.266H502.125z M518.039,253.238l-4.753-13.969c-1.08-3.168-1.8-6.049-2.521-8.856h-0.144
		c-0.72,2.88-1.513,5.832-2.448,8.784l-4.752,14.041H518.039z"/>
</g>
<g enable-background="new    ">
	<path fill="none" stroke="#FFFFFF" d="M547.629,230.196h-14.762v-5.328h35.931v5.328h-14.833V273.4h-6.336V230.196z"/>
</g>
<g enable-background="new    ">
	<path fill="none" stroke="#FFFFFF" d="M616.535,248.63c0,16.706-10.152,25.563-22.538,25.563c-12.817,0-21.817-9.937-21.817-24.626
		c0-15.409,9.576-25.49,22.537-25.49C607.967,224.076,616.535,234.229,616.535,248.63z M578.875,249.422
		c0,10.369,5.617,19.658,15.482,19.658c9.937,0,15.553-9.145,15.553-20.162c0-9.648-5.04-19.729-15.48-19.729
		C584.061,229.188,578.875,238.766,578.875,249.422z"/>
	<path fill="none" stroke="#FFFFFF" d="M624.667,225.517c3.168-0.648,7.704-1.009,12.024-1.009c6.697,0,11.018,1.225,14.041,3.961
		c2.449,2.16,3.816,5.473,3.816,9.217c0,6.408-4.031,10.656-9.145,12.385v0.216c3.744,1.296,5.977,4.753,7.129,9.793
		c1.584,6.769,2.736,11.449,3.744,13.321h-6.48c-0.792-1.368-1.872-5.545-3.24-11.593c-1.439-6.697-4.032-9.217-9.721-9.433h-5.904
		V273.4h-6.265V225.517z M630.932,247.622h6.408c6.697,0,10.945-3.672,10.945-9.217c0-6.265-4.537-9.001-11.161-9.072
		c-3.024,0-5.185,0.288-6.192,0.575V247.622z"/>
</g>
<g enable-background="new    ">
	<path fill="none" stroke="#FFFFFF" d="M256.393,359.8l-12.313-48.532h6.625l5.761,24.554c1.44,6.049,2.736,12.098,3.6,16.778h0.144
		c0.792-4.825,2.304-10.585,3.96-16.85l6.48-24.482h6.553l5.904,24.626c1.368,5.761,2.664,11.521,3.384,16.634h0.144
		c1.008-5.329,2.376-10.729,3.888-16.777l6.409-24.482h6.409L289.588,359.8h-6.552l-6.121-25.274
		c-1.512-6.192-2.521-10.944-3.168-15.841h-0.144c-0.864,4.824-1.944,9.576-3.744,15.841l-6.913,25.274H256.393z"/>
</g>
<g enable-background="new    ">
	<path fill="none" stroke="#FFFFFF" d="M336.313,337.046h-18.866v17.497h21.026v5.257h-27.29v-48.532h26.21v5.257h-19.946v15.337
		h18.866V337.046z"/>
	<path fill="none" stroke="#FFFFFF" d="M346.607,311.916c2.736-0.576,7.057-1.009,11.449-1.009c6.265,0,10.297,1.08,13.321,3.528
		c2.52,1.872,4.032,4.753,4.032,8.569c0,4.68-3.096,8.784-8.208,10.656v0.145c4.608,1.152,10.009,4.969,10.009,12.169
		c0,4.177-1.656,7.345-4.104,9.721c-3.384,3.097-8.857,4.536-16.777,4.536c-4.32,0-7.633-0.288-9.721-0.575V311.916z
		 M352.871,331.789h5.688c6.625,0,10.513-3.456,10.513-8.137c0-5.688-4.32-7.92-10.657-7.92c-2.88,0-4.537,0.216-5.545,0.432
		V331.789z M352.871,355.048c1.224,0.216,3.024,0.287,5.257,0.287c6.48,0,12.457-2.376,12.457-9.433c0-6.624-5.688-9.36-12.529-9.36
		h-5.185V355.048z"/>
	<path fill="none" stroke="#FFFFFF" d="M400.894,311.916c3.816-0.576,8.353-1.009,13.321-1.009c9.001,0,15.41,2.089,19.658,6.049
		c4.32,3.96,6.841,9.577,6.841,17.426c0,7.921-2.448,14.401-6.985,18.865c-4.536,4.536-12.025,6.984-21.458,6.984
		c-4.464,0-8.209-0.216-11.377-0.575V311.916z M407.158,354.831c1.584,0.288,3.889,0.36,6.337,0.36
		c13.393,0,20.666-7.488,20.666-20.594c0.072-11.449-6.409-18.722-19.658-18.722c-3.24,0-5.688,0.288-7.345,0.648V354.831z"/>
</g>
<g enable-background="new    ">
	<path fill="none" stroke="#FFFFFF" d="M473.976,337.046H455.11v17.497h21.026v5.257h-27.29v-48.532h26.21v5.257H455.11v15.337
		h18.866V337.046z"/>
</g>
<g enable-background="new    ">
	<path fill="none" stroke="#FFFFFF" d="M497.588,359.8l-15.841-48.532h6.769l7.561,23.906c2.088,6.553,3.889,12.457,5.185,18.146
		h0.144c1.369-5.616,3.385-11.737,5.545-18.073l8.209-23.979h6.696L504.501,359.8H497.588z"/>
</g>
<g enable-background="new    ">
	<path fill="none" stroke="#FFFFFF" d="M553.678,337.046h-18.865v17.497h21.025v5.257h-27.29v-48.532h26.21v5.257h-19.945v15.337
		h18.865V337.046z"/>
	<path fill="none" stroke="#FFFFFF" d="M563.971,311.268h6.265v43.275h20.737v5.257h-27.002V311.268z"/>
	<path fill="none" stroke="#FFFFFF" d="M636.623,335.029c0,16.706-10.153,25.563-22.539,25.563
		c-12.816,0-21.817-9.937-21.817-24.626c0-15.409,9.577-25.49,22.538-25.49C628.054,310.476,636.623,320.628,636.623,335.029z
		 M598.963,335.821c0,10.369,5.617,19.658,15.481,19.658c9.937,0,15.554-9.145,15.554-20.162c0-9.648-5.041-19.729-15.481-19.729
		C604.147,315.588,598.963,325.165,598.963,335.821z"/>
	<path fill="none" stroke="#FFFFFF" d="M644.755,311.844c3.024-0.504,6.984-0.937,12.024-0.937c6.193,0,10.729,1.44,13.609,4.032
		c2.664,2.305,4.248,5.833,4.248,10.153c0,4.393-1.295,7.849-3.744,10.369c-3.313,3.528-8.713,5.328-14.833,5.328
		c-1.872,0-3.601-0.072-5.04-0.432V359.8h-6.265V311.844z M651.02,335.246c1.367,0.359,3.096,0.504,5.184,0.504
		c7.561,0,12.17-3.673,12.17-10.369c0-6.408-4.537-9.505-11.449-9.505c-2.736,0-4.824,0.216-5.904,0.504V335.246z"/>
	<path fill="none" stroke="#FFFFFF" d="M708.188,337.046h-18.866v17.497h21.026v5.257h-27.29v-48.532h26.21v5.257h-19.946v15.337
		h18.866V337.046z"/>
	<path fill="none" stroke="#FFFFFF" d="M718.481,311.916c3.168-0.648,7.704-1.009,12.024-1.009c6.697,0,11.018,1.225,14.041,3.961
		c2.449,2.16,3.816,5.473,3.816,9.217c0,6.408-4.031,10.656-9.145,12.385v0.216c3.744,1.296,5.977,4.753,7.129,9.793
		c1.584,6.769,2.736,11.449,3.744,13.321h-6.48c-0.792-1.368-1.872-5.545-3.24-11.593c-1.439-6.697-4.032-9.217-9.721-9.433h-5.904
		V359.8h-6.265V311.916z M724.746,334.021h6.408c6.697,0,10.945-3.672,10.945-9.217c0-6.265-4.537-9.001-11.161-9.072
		c-3.024,0-5.185,0.288-6.192,0.575V334.021z"/>
</g>
</svg>
